<svg width="21" height="18" viewBox="0 0 21 18" fill="none" xmlns="http://www.w3.org/2000/svg">
<path d="M15.1808 7.21204L15.448 8.12971L16.3768 7.90422C16.6024 7.84946 16.8393 7.82012 17.0847 7.82012C18.7131 7.82012 20 9.10987 20 10.6603C20 12.2106 18.7133 13.5003 17.085 13.5004C17.0849 13.5004 17.0848 13.5004 17.0847 13.5004L4.29177 13.497C2.44313 13.4164 1 11.9259 1 10.1366C1 8.297 2.52589 6.7728 4.44915 6.7728C4.58621 6.7728 4.72102 6.78055 4.85321 6.79555L5.52614 6.8719L5.84677 6.27536C6.6895 4.70744 8.37324 3.63086 10.322 3.63086C12.6411 3.63086 14.5817 5.15485 15.1808 7.21204Z" stroke="currentColor" stroke-width="2"/>
<path d="M4 17L17 1" stroke="currentColor" stroke-width="2"/>
</svg>
