<svg width="31" height="30" viewBox="0 0 31 30" fill="#2B17A9" xmlns="http://www.w3.org/2000/svg">
<path d="M25.1507 7.11928V0H6.04266V7.11928L0.988281 10.6943V29.2784H30.2051V10.6943L25.1507 7.11928ZM27.5238 11.1874L25.1507 12.8825V9.52319L27.5238 11.1874ZM23.1782 1.97244V14.2694L15.5967 19.6319L8.0151 14.2694V1.97244H23.1782ZM6.04266 12.8825L3.66957 11.1874L6.04266 9.49237V12.8825ZM2.96072 27.306V13.0982L15.5967 22.0359L28.2326 13.0982V27.3368H2.96072V27.306Z"/>
<path d="M14.5169 13.8679H16.4585V10.6011H19.7253V8.62861H16.4585V5.39258H14.5169V8.62861H11.25V10.6011H14.5169V13.8679Z" />
</svg>
