<svg width="17" height="17" viewBox="0 0 17 17" xmlns="http://www.w3.org/2000/svg">
<path d="M13.6512 0.228516V0.128516H13.5512H3.23009H3.13009V0.228516V4.02219L0.442254 5.92334L0.4 5.95323V6.00499V16.0431V16.1431H0.5H16.2812H16.3813V16.0431V6.00499V5.95323L16.339 5.92334L13.6512 4.02219V0.228516ZM8.44837 12.2127L15.1158 7.49666V14.8943H1.6654V7.49666L8.33288 12.2127L8.39062 12.2535L8.44837 12.2127ZM13.6512 5.56468L14.6599 6.27209L13.6512 6.9926V5.56468ZM12.3858 1.39392V7.88427L8.39062 10.7101L4.39549 7.88427V1.39392H12.3858ZM3.13009 5.55008V6.9926L2.12033 6.27134L3.13009 5.55008Z" fill="currentColor" stroke="currentColor" stroke-width="0.2"/>
<path d="M7.70754 7.72047V7.82047H7.80754H8.85629H8.95629V7.72047V6.0559H10.6209H10.7209V5.9559V4.8905V4.7905H10.6209H8.95629V3.14258V3.04258H8.85629H7.80754H7.70754V3.14258V4.7905H6.04297H5.94297V4.8905V5.9559V6.0559H6.04297H7.70754V7.72047Z" fill="currentColor" stroke="currentColor" stroke-width="0.2"/>
</svg>
