<svg width="24" height="20" viewBox="0 0 24 20" xmlns="http://www.w3.org/2000/svg">
<path d="M22.8476 9.15677L19.7659 7.61594C19.3964 4.98748 18.5249 1.00643 16.6424 1.00643C16.5657 1.00643 16.4821 1.0134 16.4054 1.02734C15.9661 1.10404 15.4293 1.24348 14.8576 1.38989C13.9791 1.65483 13.0727 1.82913 12.1524 1.9128C11.2321 1.82913 10.3257 1.65483 9.44724 1.38292C8.87553 1.2365 8.33171 1.09706 7.89944 1.02037C5.89149 0.671768 4.92934 4.87592 4.54588 7.60897L1.38753 9.18466C1.0459 9.35896 0.899489 9.77729 1.07379 10.1189C1.19232 10.356 1.43634 10.5024 1.70128 10.5024H22.6314C23.0149 10.5024 23.3286 10.1886 23.3286 9.80517C23.3217 9.51932 23.1334 9.24741 22.8476 9.15677ZM18.9641 8.77331C19.9053 9.21255 19.6613 9.12191 19.6613 9.12191H4.65046C4.65046 9.12191 4.21122 9.34502 5.34767 8.77331C5.92635 8.48048 5.9891 7.37192 5.9891 7.37192C6.40045 4.85501 7.1604 2.54028 7.65542 2.40084C8.03888 2.47056 8.55482 2.60303 9.09864 2.74247C10.0956 3.04227 11.1205 3.23052 12.1524 3.30721C13.1912 3.23052 14.2161 3.04227 15.2062 2.7355C15.757 2.59606 16.2659 2.46359 16.6354 2.39387C17.1444 2.54028 17.9113 4.85501 18.3157 7.37192C18.3157 7.37192 18.3575 8.48745 18.9641 8.77331Z" fill="currentColor" stroke="currentColor" stroke-width="0.5"/>
<path d="M16.7301 11.6359C15.252 11.6359 13.9134 12.5283 13.3417 13.8878H10.9712C10.1833 12.0124 8.02896 11.1339 6.15347 11.9217C4.27799 12.7096 3.39951 14.8639 4.18735 16.7394C4.97519 18.6149 7.12956 19.4934 9.00505 18.7055C10.3716 18.1338 11.257 16.7952 11.257 15.3171C11.257 15.3101 11.257 15.2962 11.257 15.2892H13.0628C13.0628 15.2962 13.0628 15.3101 13.0628 15.3171C13.0628 17.346 14.7082 18.9984 16.744 18.9984C18.7799 18.9984 20.4253 17.353 20.4253 15.3171C20.4253 13.2813 18.7799 11.6359 16.744 11.6359H16.7301ZM7.57577 17.597C6.31383 17.597 5.28893 16.5721 5.28893 15.3101C5.28893 14.0482 6.31383 13.0233 7.57577 13.0233C8.83772 13.0233 9.86261 14.0482 9.86261 15.3101C9.85564 16.5721 8.83772 17.59 7.57577 17.597ZM16.7301 17.597C15.4682 17.597 14.4433 16.5721 14.4433 15.3101C14.4433 14.0482 15.4682 13.0233 16.7301 13.0233C17.992 13.0233 19.0169 14.0482 19.0169 15.3101C19.01 16.5721 17.992 17.59 16.7301 17.597Z" fill="currentColor" stroke="currentColor" stroke-width="0.5"/>
</svg>
