<svg width="26" height="24" viewBox="0 0 26 24" fill="#9F9CBA"  xmlns="http://www.w3.org/2000/svg">
<path d="M14.5806 20.6264C16.205 22.2056 17.9365 23.0004 19.6068 23C21.0641 23 22.4756 22.3945 23.7267 21.1771C25.397 19.5507 25.9508 17.6618 25.3275 15.7164C24.9647 14.5841 24.1914 13.4194 23.0898 12.3471L12.0549 1.65505L11.1295 2.56013L22.164 13.2509C23.1152 14.1768 23.7761 15.1606 24.076 16.0964C24.5581 17.6023 24.1407 18.969 22.8 20.2745C19.8738 23.1196 16.9752 21.1507 15.5087 19.7239L2.86294 7.38256C2.52023 7.04937 2.06998 6.38939 1.93097 5.62686C1.77011 4.74603 2.0573 3.9401 2.78513 3.23203C3.54835 2.4878 4.36579 2.17376 5.20901 2.30355C6.10076 2.43801 6.76519 3.00608 7.00955 3.24395L19.7112 15.6381L19.7124 15.6392C19.9603 15.8805 20.4736 16.3802 20.4736 16.9002C20.4736 17.1878 20.3114 17.4908 19.9919 17.801C19.7803 18.0074 19.216 18.5567 17.9588 17.3346L5.27851 5.00134L4.35136 5.90472L17.0321 18.238C19.0048 20.1558 20.4085 19.2018 20.9195 18.7039C21.4938 18.1461 21.785 17.5393 21.785 16.9006C21.7854 15.85 20.9811 15.0683 20.6384 14.7355L7.93714 2.34227C7.6023 2.01547 6.68433 1.23506 5.41053 1.0423C4.52927 0.909967 3.1969 1.02401 1.85754 2.3295C0.551829 3.60053 0.474458 4.9456 0.639693 5.85026C0.832467 6.90385 1.43571 7.79914 1.93534 8.28508L14.5806 20.6264Z" />
</svg>
